<?xml version="1.0" encoding="UTF-8" ?>
<!DOCTYPE svg PUBLIC "-//W3C//DTD SVG 1.1//EN" "http://www.w3.org/Graphics/SVG/1.1/DTD/svg11.dtd">
<svg width="1000pt" height="350pt" viewBox="0 0 1000 350" version="1.1" xmlns="http://www.w3.org/2000/svg">
<g id="#ffffffff">
<path fill="#ffffff" opacity="1.00" d=" M 584.14 55.08 C 593.41 53.75 603.27 53.36 611.88 57.61 C 619.51 59.18 625.85 64.75 629.49 71.52 C 631.85 76.05 636.14 79.64 636.87 84.91 C 637.96 90.35 640.41 95.42 641.20 100.92 C 642.18 105.87 642.35 110.92 643.15 115.90 C 643.77 120.91 644.89 125.90 644.69 130.99 C 644.42 140.99 644.84 151.02 644.09 161.01 C 645.00 171.13 642.79 181.16 641.52 191.16 C 640.28 195.66 640.39 200.42 638.84 204.85 C 637.99 207.74 636.03 210.13 635.13 213.00 C 633.22 218.58 629.23 223.02 625.93 227.79 C 623.55 231.33 619.35 232.65 615.99 234.97 C 613.01 237.15 609.24 237.60 605.84 238.80 C 600.02 240.90 593.84 238.27 587.90 239.66 C 577.76 240.09 568.65 234.83 560.31 229.68 C 558.30 227.64 556.81 225.16 555.04 222.92 C 549.02 215.48 547.03 205.88 544.54 196.87 C 543.13 187.92 542.17 178.90 540.90 169.93 C 540.08 165.27 541.10 160.56 540.51 155.89 C 539.86 149.91 541.21 143.89 540.45 137.92 C 540.10 134.26 541.03 130.64 540.93 126.99 C 540.43 117.54 542.46 108.24 544.01 98.98 C 545.37 94.61 545.84 89.99 547.85 85.83 C 550.34 80.47 551.39 74.15 555.98 70.04 C 560.17 66.28 563.54 61.10 569.14 59.31 C 571.00 58.68 572.56 57.46 574.17 56.37 C 577.55 56.48 580.85 55.76 584.14 55.08 M 588.52 76.62 C 585.77 77.34 582.83 77.74 580.46 79.43 C 575.25 82.13 573.15 88.03 570.89 93.07 C 569.04 99.60 567.30 106.29 567.14 113.11 C 566.03 119.31 565.63 125.66 566.13 131.94 C 565.48 145.27 565.30 158.65 566.56 171.91 C 566.90 179.85 566.99 187.99 569.66 195.57 C 570.96 199.17 570.92 203.29 573.38 206.41 C 575.81 210.90 579.75 214.75 584.78 216.12 C 591.42 217.99 598.36 216.44 604.87 214.79 C 606.22 213.91 607.02 212.39 608.19 211.29 C 612.16 207.93 612.95 202.51 615.04 197.99 C 618.19 183.58 618.82 168.78 619.69 154.10 C 618.58 146.78 619.35 139.40 619.14 132.05 C 618.43 127.43 619.47 122.72 618.37 118.15 C 617.51 114.18 617.75 110.07 616.89 106.11 C 615.40 100.90 615.79 95.20 612.72 90.53 C 611.90 84.62 606.86 80.89 602.27 77.80 C 598.20 75.20 593.01 75.38 588.52 76.62 Z" />
<path fill="#ffffff" opacity="1.00" d=" M 65.52 56.85 C 77.65 56.20 89.80 56.59 101.94 56.09 C 106.12 55.54 109.96 57.75 114.15 57.24 C 118.47 59.02 123.31 59.10 127.41 61.52 C 133.28 63.79 138.01 68.12 142.37 72.51 C 146.90 81.99 150.58 92.41 149.56 103.07 C 149.85 114.04 144.37 124.24 137.09 132.11 C 134.86 134.36 132.32 136.28 130.24 138.68 C 135.96 145.55 144.85 149.92 148.23 158.62 C 150.16 164.00 153.51 169.06 153.61 174.94 C 153.56 184.00 154.35 193.22 151.93 202.06 C 149.71 206.47 149.18 211.80 145.63 215.47 C 143.64 217.58 142.55 220.42 140.25 222.25 C 134.20 227.62 126.85 231.13 119.53 234.39 C 106.68 238.05 93.21 237.86 79.97 237.67 C 74.61 236.51 68.89 238.73 63.77 236.20 C 61.18 235.58 59.09 233.52 58.71 230.85 C 58.01 220.23 58.61 209.59 58.25 198.96 C 58.10 189.98 59.81 180.93 58.11 172.02 C 57.67 161.37 59.24 150.68 58.32 140.04 C 58.64 129.36 57.96 118.67 58.50 108.00 C 59.16 93.67 58.03 79.37 58.62 65.03 C 58.12 62.57 59.47 60.45 60.49 58.34 C 62.15 57.79 63.78 57.12 65.52 56.85 M 85.21 80.09 C 84.55 82.99 83.39 85.84 83.32 88.84 C 83.91 94.25 82.53 99.68 83.31 105.09 C 84.54 111.39 83.25 117.81 83.49 124.16 C 83.91 125.78 84.73 127.25 85.39 128.77 C 89.53 129.86 93.73 131.05 98.06 130.83 C 103.93 129.66 110.23 129.10 115.00 125.06 C 118.52 121.46 122.21 117.63 123.40 112.57 C 126.35 105.18 123.71 97.35 122.02 90.02 C 120.70 86.25 117.10 84.15 113.99 82.01 C 109.63 78.91 104.03 79.02 98.96 78.17 C 94.32 78.34 89.30 77.30 85.21 80.09 M 88.75 151.81 C 83.74 154.06 83.20 160.19 83.46 165.00 C 84.59 178.66 82.56 192.37 83.46 206.04 C 83.48 208.61 84.12 211.33 85.80 213.31 C 90.86 216.95 97.27 214.27 102.97 214.88 C 109.83 215.93 115.21 210.84 120.76 207.75 C 125.12 202.50 128.22 195.85 128.56 188.98 C 127.92 184.35 128.60 179.68 128.13 175.06 C 126.75 167.29 123.36 159.01 115.98 155.18 C 107.38 151.72 97.94 150.44 88.75 151.81 Z" />
<path fill="#ffffff" opacity="1.00" d=" M 427.84 58.63 C 433.53 55.94 439.90 55.59 446.06 56.51 C 452.05 57.58 457.96 55.63 463.97 56.05 C 473.50 55.51 482.72 58.22 491.98 60.05 C 494.90 60.91 498.09 61.57 500.39 63.74 C 503.06 66.06 506.39 67.57 508.72 70.31 C 511.78 73.47 513.89 77.34 515.79 81.27 C 519.00 86.66 521.09 92.88 520.80 99.21 C 522.64 109.04 522.36 119.38 519.23 128.94 C 518.63 134.26 515.56 138.70 513.51 143.51 C 510.35 146.41 508.33 150.29 505.07 153.10 C 502.24 156.05 498.32 157.71 495.97 161.16 C 495.08 166.93 497.86 172.24 499.55 177.57 C 502.32 186.47 507.43 194.46 509.62 203.55 C 511.06 208.12 513.94 212.09 515.24 216.72 C 517.17 222.88 520.90 228.90 519.84 235.59 C 518.61 236.24 517.39 236.90 516.18 237.57 C 509.62 236.38 501.87 238.40 496.54 233.40 C 492.35 230.31 492.45 224.54 489.63 220.50 C 487.52 213.22 483.19 206.72 481.79 199.22 C 480.20 192.40 476.16 186.42 474.73 179.55 C 473.36 174.06 470.11 168.13 464.20 166.65 C 460.36 166.49 456.27 166.01 452.79 168.04 C 452.05 171.00 450.85 173.91 450.99 177.01 C 451.12 185.03 451.34 193.04 451.44 201.06 C 451.52 204.73 450.43 208.38 451.01 212.03 C 451.98 215.99 449.87 219.90 450.66 223.88 C 451.58 228.19 451.38 233.65 447.22 236.24 C 445.54 237.86 443.12 237.81 440.95 237.77 C 436.48 237.48 432.02 236.85 427.75 235.48 C 427.19 234.04 426.31 232.68 426.09 231.13 C 425.84 218.79 426.67 206.43 425.94 194.10 C 427.77 183.39 424.45 172.58 426.41 161.90 C 426.39 157.92 425.56 153.98 425.82 149.99 C 426.14 133.06 425.80 116.11 425.93 99.19 C 427.23 94.48 424.66 89.76 425.92 85.05 C 427.02 80.71 425.39 76.31 426.11 71.96 C 426.54 68.89 426.19 65.79 425.78 62.75 C 426.46 61.37 427.15 60.00 427.84 58.63 M 453.26 79.83 C 449.78 87.10 451.73 95.29 450.76 102.99 C 451.05 109.62 450.62 116.25 451.03 122.86 C 449.69 128.42 451.60 133.94 451.40 139.52 C 452.00 140.85 452.80 142.08 453.56 143.32 C 459.21 145.85 465.78 147.12 471.73 144.82 C 473.68 143.98 475.79 144.12 477.87 144.26 C 482.37 140.53 489.11 139.22 491.70 133.51 C 497.08 123.99 497.46 112.54 496.43 101.90 C 496.29 96.78 493.66 92.19 491.14 87.90 C 488.12 85.31 484.91 82.88 481.58 80.70 C 478.79 79.86 476.02 78.92 473.16 78.37 C 466.51 78.28 459.71 77.84 453.26 79.83 Z" />
<path fill="#ffffff" opacity="1.00" d=" M 673.58 58.38 C 677.80 55.93 682.84 56.37 687.54 56.20 C 693.98 57.06 701.92 56.72 706.32 62.40 C 707.90 66.86 708.37 71.64 710.12 76.06 C 711.87 80.43 712.23 85.27 714.55 89.41 C 716.32 92.87 715.83 96.94 717.37 100.47 C 718.81 105.33 720.35 110.17 721.56 115.10 C 722.99 121.58 726.33 127.50 727.19 134.13 C 729.94 139.97 730.96 146.39 732.76 152.55 C 733.73 155.64 733.80 158.87 733.95 162.08 C 734.78 166.43 736.72 170.50 737.52 174.87 C 738.19 179.07 737.98 183.68 740.63 187.28 C 745.27 170.62 747.76 153.45 753.04 136.95 C 755.64 124.95 760.42 113.55 762.77 101.48 C 763.95 97.71 765.27 93.97 765.97 90.06 C 767.91 86.22 768.12 81.87 769.65 77.88 C 771.28 72.74 773.39 67.71 774.16 62.33 C 775.04 60.82 776.18 59.48 777.25 58.09 C 784.45 57.03 791.66 55.84 798.97 56.46 C 803.27 55.98 807.95 58.51 808.88 62.94 C 809.03 69.30 809.45 75.68 808.75 82.01 C 808.75 91.71 808.89 101.33 808.78 111.02 C 808.00 117.05 809.43 123.11 808.29 129.12 C 809.93 136.64 807.44 144.26 808.68 151.83 C 809.79 157.47 808.10 163.18 808.60 168.86 C 809.47 175.26 807.68 181.74 809.06 188.11 C 809.26 195.39 809.52 202.73 808.47 209.96 C 807.77 218.59 810.47 227.35 808.17 235.83 C 804.24 238.44 799.41 237.45 794.98 237.49 C 790.90 237.44 787.17 235.34 784.54 232.31 C 784.14 222.89 784.45 213.47 784.24 204.07 C 783.79 199.35 784.43 194.63 784.58 189.92 C 785.18 182.27 783.42 174.65 784.36 167.01 C 784.29 159.66 784.63 152.31 784.07 144.97 C 784.50 138.66 784.75 132.33 785.18 126.02 C 784.80 115.86 786.36 105.73 786.08 95.58 C 784.35 98.24 784.29 101.45 783.62 104.45 C 778.61 117.25 776.27 130.91 772.54 144.12 C 770.89 154.54 767.64 164.61 764.89 174.77 C 761.38 183.92 759.74 193.62 756.56 202.87 C 755.58 206.45 755.07 210.56 751.61 212.70 C 745.31 215.08 737.90 216.63 731.55 213.61 C 728.65 212.77 726.10 210.20 726.05 207.07 C 725.54 201.78 722.47 197.24 721.49 192.07 C 720.58 187.76 718.15 183.90 717.66 179.48 C 716.72 171.33 712.87 163.95 711.04 156.02 C 708.72 146.96 705.94 138.02 703.24 129.07 C 702.34 122.87 700.80 116.79 698.59 110.92 C 696.66 105.96 697.90 100.00 694.29 95.72 C 694.35 104.86 695.36 113.98 695.11 123.12 C 695.86 128.06 696.07 133.02 695.80 138.01 C 696.98 146.97 695.51 155.99 696.41 164.98 C 695.57 170.33 697.00 175.62 696.36 180.97 C 696.45 183.97 696.34 186.97 696.37 189.97 C 697.41 202.01 695.28 214.08 696.38 226.13 C 696.94 229.39 695.19 232.32 694.17 235.29 C 692.87 235.94 691.60 236.70 690.22 237.15 C 684.54 237.11 678.64 238.73 673.37 235.77 C 669.65 229.64 672.74 222.58 671.92 215.93 C 671.02 205.33 672.58 194.66 671.42 184.09 C 672.11 178.39 670.99 172.70 671.74 167.00 C 671.47 162.28 672.28 157.56 671.44 152.88 C 671.33 145.91 672.44 138.94 671.87 131.97 C 671.49 127.66 671.65 123.34 671.95 119.03 C 672.36 115.06 670.74 111.21 671.19 107.24 C 672.26 100.56 672.29 93.71 671.49 87.00 C 671.81 84.31 671.57 81.63 671.17 78.96 C 671.05 74.26 671.42 69.56 671.50 64.86 C 671.35 62.50 672.68 60.46 673.58 58.38 Z" />
<path fill="#ffffff" opacity="1.00" d=" M 206.78 58.61 C 211.71 55.60 217.68 57.37 223.10 56.60 C 229.26 55.65 236.90 59.37 238.06 65.97 C 241.73 79.92 245.11 93.96 248.09 108.06 C 250.00 112.65 249.85 117.74 251.71 122.32 C 252.82 126.40 252.52 130.77 254.10 134.75 C 255.72 139.03 256.13 143.63 257.67 147.93 C 260.27 155.73 260.14 164.22 263.40 171.83 C 264.64 177.57 265.87 183.31 266.88 189.10 C 269.22 199.45 272.10 209.70 273.98 220.15 C 275.13 224.82 278.17 230.12 275.64 234.78 C 272.25 238.01 267.21 237.16 262.95 237.52 C 258.60 237.79 253.59 236.62 251.22 232.63 C 248.08 227.23 248.33 220.76 246.54 214.91 C 244.36 206.42 244.46 196.95 239.29 189.52 C 233.72 186.06 227.10 188.10 220.97 187.68 C 214.61 187.70 207.48 185.86 201.90 189.89 C 197.00 193.77 198.27 200.58 196.56 205.94 C 194.59 212.57 192.39 219.21 191.79 226.15 C 191.18 231.13 188.43 236.66 183.05 237.66 C 176.93 236.81 170.04 239.41 164.68 235.30 C 164.25 234.16 163.82 233.03 163.39 231.90 C 166.89 223.07 167.43 213.39 170.46 204.42 C 172.30 197.19 172.60 189.57 175.31 182.57 C 177.84 171.02 180.42 159.50 183.61 148.10 C 185.31 142.49 185.80 136.61 187.30 130.95 C 189.87 120.66 192.26 110.32 195.15 100.11 C 197.55 91.92 197.73 83.19 201.08 75.28 C 202.04 69.51 202.08 62.84 206.78 58.61 M 220.04 86.24 C 218.63 93.73 217.79 101.32 216.37 108.81 C 214.86 114.42 214.69 120.27 213.41 125.93 C 210.95 136.94 208.49 147.95 206.04 158.96 C 205.48 160.69 206.10 162.45 206.37 164.17 C 207.61 165.12 208.84 166.07 210.08 167.03 C 215.02 166.04 220.05 165.42 225.05 166.46 C 228.08 167.27 230.87 165.72 233.63 164.70 C 234.08 162.84 235.10 160.98 234.58 159.02 C 233.53 152.31 232.22 145.63 230.29 139.11 C 227.82 125.61 224.38 112.25 223.19 98.55 C 222.25 94.49 223.02 89.53 220.04 86.24 Z" />
<path fill="#ffffff" opacity="1.00" d=" M 296.98 58.93 C 301.32 55.70 306.93 56.93 311.98 56.65 C 317.20 56.91 320.90 61.97 320.82 66.99 C 320.69 86.34 320.67 105.70 320.68 125.05 C 320.41 129.20 323.67 133.46 327.97 133.59 C 332.33 133.33 336.58 134.82 340.95 134.40 C 348.41 133.88 355.89 133.08 363.33 134.26 C 364.72 133.39 366.12 132.51 367.52 131.64 C 368.81 127.89 370.19 123.99 369.51 119.97 C 369.94 108.99 369.43 97.99 369.76 87.00 C 370.00 80.00 368.93 72.99 369.68 66.00 C 369.05 61.87 371.91 58.36 375.21 56.29 C 380.87 57.64 387.55 55.60 392.38 59.52 C 393.26 60.68 393.96 61.95 394.73 63.19 C 394.03 77.83 393.81 92.50 394.49 107.13 C 395.55 114.09 394.04 121.08 394.69 128.06 C 394.14 136.03 394.14 144.04 394.35 152.03 C 394.74 158.73 393.75 165.47 394.71 172.14 C 395.28 176.09 394.29 180.02 394.44 183.97 C 394.56 199.02 393.55 214.12 395.40 229.09 C 396.06 232.75 392.95 235.50 390.42 237.58 C 386.61 237.64 382.80 237.17 379.02 237.61 C 375.14 238.31 371.89 234.93 370.79 231.51 C 368.41 222.19 370.20 212.49 369.17 203.06 C 370.03 195.04 368.83 186.97 369.69 178.95 C 369.12 173.97 369.53 168.98 369.74 164.00 C 370.15 161.51 368.46 159.47 367.53 157.31 C 366.13 156.70 364.73 156.09 363.33 155.49 C 352.37 158.01 341.16 154.60 330.08 155.81 C 325.02 155.28 320.24 159.88 320.89 164.99 C 320.78 186.33 320.55 207.66 320.44 228.99 C 320.53 231.30 319.52 233.42 318.84 235.57 C 316.65 236.41 314.39 237.19 312.01 237.08 C 308.47 237.07 304.93 238.11 301.41 237.61 C 297.41 235.35 294.98 230.71 295.65 226.13 C 296.71 220.81 295.49 215.42 295.85 210.07 C 294.97 205.00 296.76 199.95 295.87 194.90 C 294.82 189.25 296.90 183.55 295.77 177.92 C 294.96 169.97 296.97 162.02 296.23 154.07 C 295.61 144.08 295.33 134.07 295.95 124.07 C 295.36 111.07 295.55 98.06 295.96 85.07 C 296.93 78.69 295.23 72.37 295.02 66.01 C 294.87 63.50 295.51 60.98 296.98 58.93 Z" />
<path fill="#ffffff" opacity="1.00" d=" M 870.82 58.71 C 875.64 55.57 881.67 57.37 887.05 56.61 C 892.53 55.70 898.78 58.42 901.44 63.42 C 905.60 78.30 909.03 93.39 912.35 108.47 C 914.14 112.92 914.01 117.85 915.83 122.29 C 916.71 125.15 916.63 128.20 917.22 131.13 C 920.09 141.69 923.38 152.18 925.00 163.05 C 925.43 167.25 927.68 170.96 928.32 175.12 C 930.61 188.74 934.27 202.08 937.25 215.57 C 937.65 222.07 942.63 228.51 939.86 235.00 C 935.26 238.12 929.39 237.40 924.12 237.43 C 918.51 237.46 914.15 232.78 913.29 227.46 C 911.63 218.91 909.63 210.41 908.16 201.82 C 907.18 197.51 906.14 193.11 903.42 189.52 C 897.81 186.05 891.15 188.11 884.98 187.68 C 878.65 187.68 871.52 185.87 865.99 189.92 C 861.08 193.86 862.42 200.70 860.65 206.08 C 858.68 212.65 856.53 219.23 855.92 226.11 C 855.37 231.22 852.49 236.36 847.28 237.80 C 841.15 236.58 834.17 239.55 828.79 235.27 C 828.36 234.14 827.94 233.01 827.53 231.89 C 831.06 223.06 831.54 213.37 834.60 204.39 C 836.41 196.99 836.87 189.25 839.58 182.09 C 840.42 177.74 841.32 173.41 842.59 169.17 C 844.10 159.79 847.43 150.82 849.32 141.52 C 850.97 131.16 854.03 121.10 856.37 110.89 C 858.47 102.97 860.86 95.10 862.01 86.98 C 862.45 84.47 862.83 81.92 863.70 79.51 C 867.00 72.87 864.81 64.08 870.82 58.71 M 884.23 86.21 C 882.66 93.93 881.92 101.79 880.34 109.51 C 878.98 114.75 878.80 120.19 877.65 125.46 C 875.14 136.71 872.61 147.95 870.12 159.20 C 869.66 160.86 870.27 162.54 870.52 164.18 C 871.74 165.12 872.97 166.07 874.21 167.03 C 879.13 166.03 884.15 165.43 889.15 166.46 C 892.18 167.28 894.98 165.73 897.75 164.70 C 898.14 163.26 898.72 161.85 898.86 160.35 C 897.81 150.32 894.49 140.77 892.80 130.87 C 890.89 120.64 888.34 110.52 887.53 100.12 C 886.47 95.53 887.32 90.07 884.23 86.21 Z" />
<path fill="#ffffff" opacity="1.00" d=" M 360.41 271.24 C 368.14 266.68 378.55 268.97 384.86 275.00 C 383.64 276.42 382.44 277.84 381.23 279.26 C 376.61 275.44 369.72 272.94 364.11 276.07 C 360.94 277.58 359.39 283.06 363.35 284.59 C 369.24 286.58 375.95 284.65 381.61 287.70 C 388.35 291.21 387.95 302.04 382.02 306.19 C 373.13 312.65 359.49 310.76 352.73 302.04 C 354.11 300.75 355.48 299.46 356.86 298.17 C 360.54 302.51 366.26 305.19 372.00 304.04 C 376.10 303.68 381.43 300.92 380.45 296.01 C 379.94 292.05 375.27 291.36 372.04 291.34 C 366.59 291.24 359.96 291.49 356.21 286.78 C 352.51 281.66 355.20 274.20 360.41 271.24 Z" />
<path fill="#ffffff" opacity="1.00" d=" M 439.91 269.31 C 442.04 269.31 444.17 269.31 446.31 269.32 C 452.59 282.59 458.90 295.85 465.20 309.12 C 463.03 309.12 460.86 309.12 458.70 309.13 C 457.83 307.23 456.98 305.34 456.13 303.44 C 449.36 303.77 442.29 302.48 435.78 304.85 C 433.65 305.48 432.34 307.31 431.25 309.11 C 429.20 309.12 427.14 309.12 425.10 309.13 C 430.75 297.47 436.42 285.83 442.08 274.18 C 441.35 272.55 440.63 270.93 439.91 269.31 M 436.41 299.55 C 441.72 296.89 447.82 297.77 453.54 297.63 C 450.67 292.18 447.86 286.71 445.02 281.25 C 442.12 287.33 439.47 293.54 436.41 299.55 Z" />
<path fill="#ffffff" opacity="1.00" d=" M 571.90 269.31 C 574.03 269.31 576.17 269.31 578.31 269.32 C 584.59 282.59 590.90 295.85 597.19 309.12 C 595.02 309.12 592.85 309.12 590.69 309.13 C 589.83 307.24 588.98 305.34 588.14 303.45 C 581.36 303.75 574.28 302.48 567.76 304.86 C 565.64 305.49 564.34 307.32 563.25 309.11 C 561.19 309.12 559.14 309.12 557.10 309.13 C 562.74 297.47 568.42 285.83 574.07 274.18 C 573.34 272.55 572.62 270.93 571.90 269.31 M 568.45 299.51 C 573.76 296.92 579.82 297.75 585.52 297.63 C 582.69 292.17 579.85 286.71 577.02 281.24 C 574.14 287.32 571.45 293.49 568.45 299.51 Z" />
<path fill="#ffffff" opacity="1.00" d=" M 695.43 269.62 C 702.74 267.54 710.90 269.80 716.38 275.00 C 715.16 276.41 713.95 277.84 712.76 279.26 C 708.08 275.39 700.96 272.83 695.37 276.25 C 692.48 277.79 691.03 282.75 694.54 284.44 C 700.29 286.67 706.92 284.64 712.59 287.44 C 719.66 290.50 719.69 301.45 713.93 305.86 C 705.11 312.73 691.09 310.90 684.25 302.04 C 685.63 300.74 687.01 299.45 688.39 298.16 C 693.29 304.47 702.90 306.24 709.59 301.81 C 712.80 299.81 713.02 294.22 709.46 292.49 C 704.60 290.36 699.08 292.02 694.06 290.58 C 690.33 289.79 686.69 287.07 686.18 283.08 C 684.98 276.97 689.77 271.25 695.43 269.62 Z" />
<path fill="#ffffff" opacity="1.00" d=" M 272.75 270.00 C 279.84 270.04 286.92 269.93 294.01 270.04 C 298.25 270.05 302.74 272.13 304.59 276.12 C 306.56 280.46 306.15 286.24 302.60 289.67 C 301.01 291.28 298.82 292.00 296.79 292.87 C 299.07 297.32 301.17 304.37 307.54 303.43 C 307.50 305.36 307.50 307.29 307.49 309.22 C 303.60 309.19 299.02 308.82 296.65 305.25 C 294.15 301.44 292.54 297.13 290.54 293.05 C 286.50 292.80 282.33 292.81 278.52 294.33 C 278.49 299.26 278.51 304.19 278.50 309.13 C 276.58 309.12 274.66 309.12 272.75 309.13 C 272.75 296.08 272.75 283.04 272.75 270.00 M 278.50 275.82 C 278.49 280.04 278.53 284.26 278.46 288.48 C 284.25 286.05 290.64 288.07 296.58 286.66 C 301.27 285.21 301.20 277.06 296.18 276.15 C 290.33 275.40 284.39 276.01 278.50 275.82 Z" />
<path fill="#ffffff" opacity="1.00" d=" M 316.87 270.00 C 326.09 270.01 335.30 269.99 344.51 270.01 C 344.50 271.94 344.50 273.88 344.50 275.81 C 337.23 275.82 329.96 275.81 322.69 275.82 C 322.68 279.66 322.71 283.50 322.66 287.34 C 327.77 285.41 333.30 286.22 338.63 286.06 C 338.62 288.02 338.62 289.98 338.63 291.94 C 333.31 292.10 327.75 291.29 322.69 293.34 C 322.69 296.68 322.69 300.03 322.69 303.37 C 330.73 303.37 338.77 303.37 346.81 303.37 C 346.81 305.29 346.81 307.20 346.82 309.12 C 336.84 309.13 326.86 309.12 316.87 309.13 C 316.87 296.08 316.87 283.04 316.87 270.00 Z" />
<path fill="#ffffff" opacity="1.00" d=" M 390.62 270.01 C 401.77 269.99 412.91 270.00 424.06 270.00 C 424.06 271.94 424.06 273.87 424.06 275.82 C 419.46 275.81 414.85 275.81 410.25 275.82 C 410.25 286.92 410.25 298.02 410.25 309.13 C 408.37 309.12 406.49 309.12 404.62 309.13 C 404.62 298.02 404.63 286.92 404.62 275.81 C 399.95 275.82 395.29 275.82 390.62 275.81 C 390.62 273.87 390.62 271.94 390.62 270.01 Z" />
<path fill="#ffffff" opacity="1.00" d=" M 471.41 270.03 C 473.33 270.00 475.26 269.99 477.19 269.99 C 477.24 278.26 477.08 286.53 477.26 294.79 C 477.28 298.83 480.11 302.60 484.06 303.57 C 488.32 304.67 493.26 304.64 497.08 302.20 C 499.78 300.44 501.02 297.14 500.98 294.02 C 501.04 286.01 500.97 278.00 501.00 270.00 C 502.91 270.00 504.83 270.00 506.76 270.00 C 506.73 278.02 506.80 286.03 506.73 294.04 C 506.72 298.40 505.34 302.98 501.97 305.92 C 497.87 309.48 492.15 310.31 486.91 309.93 C 482.12 309.62 477.05 307.75 474.23 303.67 C 472.03 300.60 471.45 296.73 471.44 293.05 C 471.41 285.37 471.47 277.70 471.41 270.03 Z" />
<path fill="#ffffff" opacity="1.00" d=" M 517.69 270.00 C 524.80 270.04 531.91 269.93 539.02 270.04 C 543.36 270.06 547.94 272.27 549.71 276.42 C 551.48 280.71 551.06 286.28 547.60 289.63 C 546.01 291.27 543.81 292.01 541.77 292.87 C 544.04 297.32 546.13 304.33 552.47 303.44 C 552.44 305.36 552.43 307.29 552.43 309.22 C 548.84 309.11 544.67 308.98 542.19 305.96 C 539.17 302.03 537.71 297.19 535.33 292.88 C 531.36 292.93 527.28 292.81 523.52 294.30 C 523.48 299.24 523.51 304.18 523.50 309.13 C 521.56 309.12 519.62 309.12 517.69 309.13 C 517.68 296.08 517.69 283.04 517.69 270.00 M 523.46 288.48 C 529.24 286.05 535.63 288.06 541.56 286.66 C 546.23 285.19 546.17 277.09 541.17 276.15 C 535.33 275.40 529.39 276.01 523.50 275.82 C 523.49 280.03 523.54 284.26 523.46 288.48 Z" />
<path fill="#ffffff" opacity="1.00" d=" M 600.99 270.00 C 603.50 270.00 606.03 269.99 608.55 270.02 C 616.87 279.96 625.26 289.84 633.61 299.77 C 633.64 289.84 633.61 279.92 633.62 270.00 C 635.57 270.00 637.54 270.00 639.51 270.00 C 639.49 283.05 639.52 296.10 639.49 309.15 C 637.56 309.13 635.64 309.12 633.72 309.12 C 626.24 300.22 618.79 291.28 611.31 282.38 C 611.31 291.29 611.31 300.21 611.31 309.13 C 609.41 309.12 607.51 309.12 605.62 309.13 C 605.61 297.93 605.64 286.73 605.61 275.54 C 604.05 273.70 602.51 271.85 600.99 270.00 Z" />
<path fill="#ffffff" opacity="1.00" d=" M 646.75 275.81 C 646.74 273.87 646.74 271.93 646.75 270.00 C 657.89 270.00 669.04 270.00 680.19 270.00 C 680.18 271.94 680.18 273.87 680.19 275.81 C 675.59 275.82 670.98 275.81 666.38 275.81 C 666.37 286.92 666.38 298.02 666.38 309.13 C 664.49 309.12 662.62 309.12 660.75 309.13 C 660.75 298.02 660.74 286.92 660.75 275.82 C 656.08 275.81 651.41 275.82 646.75 275.81 Z" />
<path fill="#ffffff" opacity="1.00" d=" M 56.00 283.37 C 122.67 283.37 189.33 283.38 256.00 283.37 C 256.00 285.66 256.00 287.95 256.00 290.25 C 189.33 290.25 122.67 290.25 56.00 290.25 C 56.00 287.95 56.00 285.66 56.00 283.37 Z" />
<path fill="#ffffff" opacity="1.00" d=" M 729.00 283.37 C 799.67 283.38 870.33 283.37 941.00 283.37 C 940.99 285.66 940.99 287.95 941.00 290.25 C 870.33 290.25 799.67 290.25 729.00 290.25 C 728.99 287.95 728.99 285.66 729.00 283.37 Z" />
</g>
</svg>
