<svg xmlns="http://www.w3.org/2000/svg" width="448" height="124" fill="none" viewBox="0 0 448 124">
  <path fill="#E47E1A" d="M152.231 111.995a286.521 286.521 0 0 0 39.29 3.449 325.79 325.79 0 0 0 57.278-3.641 228.315 228.315 0 0 0 50.406-13.224 73.738 73.738 0 0 0 20.234-11.39 77.43 77.43 0 0 1-21.247 13.47 238.86 238.86 0 0 1-53.089 16.593 317.152 317.152 0 0 1-58.702 6.078 221.25 221.25 0 0 1-35.347-2.191 100.325 100.325 0 0 1-35.211-11.307c-7.283-4.326-9.692-8.214-8.925-9.008.766-.794 4.408.931 11.746 3.313a215.586 215.586 0 0 0 33.567 7.858"/>
  <path fill="#fff" fill-rule="evenodd" d="m229.88 57.126 11.143-23.163h.219l12.321 23.163h12.677L249.894 27.2h-10.733l-14.785 29.926h5.504ZM54.623 44.066l17.495-.22a10.185 10.185 0 0 1-3.806 7.503 14.757 14.757 0 0 1-9.008 2.546 14.32 14.32 0 0 1-7.94-1.971 15.47 15.47 0 0 1-4.435-4.053l-.794-1.204-5.695 3.34a23.765 23.765 0 0 0 7.036 5.476 26.475 26.475 0 0 0 12.814 2.738c5.01 0 12.841-.74 18.481-5.038a12.95 12.95 0 0 0 0-21.548 30.802 30.802 0 0 0-18.344-5.065c-4-.116-7.985.525-11.746 1.89a24.148 24.148 0 0 0-8.214 4.982l5.695 3.286 1.37-1.506a13.69 13.69 0 0 1 4.763-3.23 17.001 17.001 0 0 1 7.228-1.37 12.95 12.95 0 0 1 9.583 3.286 9.857 9.857 0 0 1 2.738 6.05l-17.221-.465v4.573ZM286.391 30.02a10.078 10.078 0 0 1 8.598 3.888 13.006 13.006 0 0 1 2.354 8.214 13.06 13.06 0 0 1-2.354 8.214 11.418 11.418 0 0 1-17.195 0 13.087 13.087 0 0 1-2.354-8.214 13.033 13.033 0 0 1 2.354-8.214 10.077 10.077 0 0 1 8.597-3.888m0 28.01a30.75 30.75 0 0 0 17.688-5.038 13.881 13.881 0 0 0 5.804-10.76 13.881 13.881 0 0 0-5.804-10.761 30.75 30.75 0 0 0-17.688-5.065 31.133 31.133 0 0 0-17.742 5.065 12.951 12.951 0 0 0 0 21.548 31.131 31.131 0 0 0 17.742 5.038m-95.582-23.3a11.881 11.881 0 0 1 3.641-.575h1.342v15.551h-1.342a11.608 11.608 0 0 1-3.641-.575 6.872 6.872 0 0 1-2.546-1.369 8.212 8.212 0 0 1 0-11.69 6.836 6.836 0 0 1 2.546-1.37m20.535 18.783a23.547 23.547 0 0 0 11.444-3.122 9.775 9.775 0 0 0 4.874-8.487 9.967 9.967 0 0 0-4.874-8.433 23.707 23.707 0 0 0-11.444-3.121h-4.627V26.24h-11.336v4.108h-4.517a23.41 23.41 0 0 0-11.445 3.12 9.994 9.994 0 0 0-4.874 8.434 9.803 9.803 0 0 0 4.874 8.487 23.246 23.246 0 0 0 11.445 3.122h4.572v4.353h11.335v-4.216h4.573m0-18.783c.936.27 1.804.737 2.546 1.37a8.216 8.216 0 0 1 0 11.69 6.872 6.872 0 0 1-2.546 1.37 11.953 11.953 0 0 1-3.697.574h-1.286V34.182h1.286c1.255 0 2.502.194 3.697.575m-62.809-4.737a10.157 10.157 0 0 1 8.597 3.888 13.007 13.007 0 0 1 2.355 8.214 13.06 13.06 0 0 1-2.355 8.214 11.472 11.472 0 0 1-17.249 0 12.975 12.975 0 0 1-2.327-8.214 12.89 12.89 0 0 1 2.327-8.214 10.13 10.13 0 0 1 8.624-3.888m0 28.01a30.86 30.86 0 0 0 17.688-5.039 13.006 13.006 0 0 0 0-21.547 33.569 33.569 0 0 0-35.43 0 12.951 12.951 0 0 0 0 21.547 30.914 30.914 0 0 0 17.742 5.038m-42.794-11.746h2.108c4.114.33 8.24-.466 11.938-2.3a8.213 8.213 0 0 0 4.161-7.337 7.993 7.993 0 0 0-4.161-7.174c-2.738-1.615-6.325-2.135-12.431-2.135H87.916v29.898H99.28V46.283h6.434Zm0-14.347a8.978 8.978 0 0 1 4.435 1.15 4.216 4.216 0 0 1 1.972 3.478 4.33 4.33 0 0 1-2.108 3.805 8.546 8.546 0 0 1-4.326 1.26h-6.407v-9.912h5.257a8.227 8.227 0 0 1 1.177 0v.22Zm-87.889 2.3 5.668 10.186H12.184l5.476-10.405h.164v.22Zm7.968 14.265 4.873 8.734h12.677L26.148 27.118H15.634L0 57.235h5.64l4.463-8.624 15.689-.11Zm282.284-16.784h12.212v25.409h11.335V31.717h12.238V27.2h-35.785v4.517ZM14.895 86.23l-3.231-1.615 13.361-1.725c.246.41.466.767.74 1.15l-10.87 2.19Zm35.894 0 3.231-1.615-13.306-1.67a4.355 4.355 0 0 1-.712 1.177l10.787 2.108Zm-1.944.247L44.793 87.9l-5.75-1.834-.492-.164c.188-.16.354-.344.492-.548.247-.191.438-.465.657-.684l9.145 1.807Zm10.678-3.998-3.696 1.807-14.894-1.807c0-.356.246-.739.356-1.122l18.234 1.122Zm1.315-.547 4.736-3.231H39.536a7.994 7.994 0 0 1-.493 3.012 6.16 6.16 0 0 1-6.05 4.025 6.872 6.872 0 0 1-6.16-3.861 7.446 7.446 0 0 1-.63-3.094H0l4.791 3.094 20.015-1.095a8.488 8.488 0 0 0 2.026 3.833 8.378 8.378 0 0 0 6.133 2.738 7.639 7.639 0 0 0 6.051-2.738 9.171 9.171 0 0 0 1.917-3.696l19.905 1.013Zm-21.904 8.405.493.986-.493.246-1.37.657-1.56-3.258a9.886 9.886 0 0 1-3.148.603 9.364 9.364 0 0 1-3.423-.493l-1.314 3.121a2.109 2.109 0 0 1-1.396-.301 1.013 1.013 0 0 1-.466-.63l.466-.821 1.122-2.136a5.803 5.803 0 0 1-.985-.739l.93-1.205a9.309 9.309 0 0 0 5.066 1.588 7.83 7.83 0 0 0 5.01-1.725l1.04.329.439.164-.438.383a4.223 4.223 0 0 1-1.096.959l1.123 2.272Zm0-16.838a11.336 11.336 0 0 1 2.136 4.654H39.4a10.275 10.275 0 0 0-.466-1.56 15.223 15.223 0 0 0-6.051-7.201c-.356-.22-.657-.466-1.013-.657l1.013.356a14.73 14.73 0 0 1 6.05 4.38v.028ZM34.416 85.08a3.86 3.86 0 0 0 1.616-.739l-2.738-5.476 2.738-1.396-2.328-2.136-.93.466-4.025 1.916 1.177 2.738 1.89-.903 2.6 5.53Zm-7.173.822-.466-.41a5.038 5.038 0 0 1-.794-.877l-9.117 1.834 3.888 1.397 6.489-1.944Zm-2.492-3.423a13.308 13.308 0 0 1-.383-1.122L6.106 82.479l3.696 1.89 14.95-1.89Zm83.371-7.858a4.954 4.954 0 0 0-3.586-1.095l-5.093-.11-5.038 16.428h2.163l2.19-7.063h3.259a7.587 7.587 0 0 0 4.38-1.397 6.213 6.213 0 0 0 2.41-4.189 3.039 3.039 0 0 0-.685-2.574Zm-5.585 6.298h-3.23l1.861-5.504h3.094a2.573 2.573 0 0 1 1.862.603c.34.443.47 1.013.356 1.56a4.326 4.326 0 0 1-1.506 2.574 4.026 4.026 0 0 1-2.437.767Zm16.482 1.561a4.266 4.266 0 0 0-.356-2.739l.137-.054a3.285 3.285 0 0 0-3.039-1.451 6.268 6.268 0 0 0-3.942 1.45 10.074 10.074 0 0 0-3.094 6.216 4.266 4.266 0 0 0 .356 2.738 3.258 3.258 0 0 0 3.039 1.45 6.325 6.325 0 0 0 3.806-1.45 10.02 10.02 0 0 0 3.093-6.16Zm-2.053-2a4.457 4.457 0 0 1-.192 3.122l-.465 1.013a6.138 6.138 0 0 1-1.752 3.121 3.316 3.316 0 0 1-2.109.767 1.725 1.725 0 0 1-1.615-.767 4.242 4.242 0 0 1 .192-3.121l.492-1.013a6.953 6.953 0 0 1 1.616-2.957 3.258 3.258 0 0 1 2.218-.931 1.78 1.78 0 0 1 1.615.767Z" clip-rule="evenodd"/>
  <path fill="#fff" d="M128.548 88.941c-.489.248-.992.468-1.506.657a7.48 7.48 0 0 1-2.738.466 3.558 3.558 0 0 1-2.738-1.123 4.354 4.354 0 0 1-.603-2.93 10.108 10.108 0 0 1 3.642-6.872 6.732 6.732 0 0 1 3.422-.958 4.163 4.163 0 0 1 2.246.602c.564.39.844 1.079.711 1.752a3.85 3.85 0 0 1-.465 1.315l-1.862.164a2.11 2.11 0 0 0 .192-1.78 1.644 1.644 0 0 0-1.451-.547 3.069 3.069 0 0 0-1.616.438 4.957 4.957 0 0 0-2.053 3.121l-.438 1.479a3.771 3.771 0 0 0 0 2.738 1.97 1.97 0 0 0 1.971.958 5.474 5.474 0 0 0 1.752-.274c.481-.13.948-.305 1.397-.52l.137 1.314Zm11.28 0a14.47 14.47 0 0 1-1.506.657 7.471 7.471 0 0 1-2.738.466 3.56 3.56 0 0 1-2.738-1.123 4.3 4.3 0 0 1-.602-2.93 10.133 10.133 0 0 1 3.641-6.872 6.763 6.763 0 0 1 3.423-.958 4.215 4.215 0 0 1 2.245.602c.565.39.844 1.079.712 1.752a4.023 4.023 0 0 1-.466 1.315l-1.861.164a2.055 2.055 0 0 0 .164-1.78 1.616 1.616 0 0 0-1.451-.547 3.095 3.095 0 0 0-1.643.438 5.015 5.015 0 0 0-2.054 3.121l-.438 1.479a3.813 3.813 0 0 0 0 2.738 2 2 0 0 0 1.999.958 5.477 5.477 0 0 0 1.752-.274c.481-.13.948-.305 1.397-.52l.164 1.314Zm12.293.876h-1.944l2.738-8.843-7.885 8.843h-2.3l3.477-11.308h1.944l-2.71 8.844 7.858-8.844h2.327l-3.505 11.308Z"/>
  <path fill="#fff" fill-rule="evenodd" d="M168.796 74.375c.075-.232.13-.47.164-.712h-1.561v.301a1.775 1.775 0 0 1-.712 1.04 1.669 1.669 0 0 1-1.095.302 1.12 1.12 0 0 1-.903-.301 1.067 1.067 0 0 1 0-1.068v-.274h-1.533a3.786 3.786 0 0 0-.439 1.205 1.48 1.48 0 0 0 .493 1.314c.544.4 1.217.586 1.889.52a4.273 4.273 0 0 0 2.191-.52 2.74 2.74 0 0 0 1.506-1.807Zm-4.983 15.442h1.944l3.422-11.308h-2.3l-7.83 8.844 2.738-8.844h-1.944l-3.478 11.308h2.3l7.886-8.843-2.738 8.843Z" clip-rule="evenodd"/>
  <path fill="#fff" d="M178.023 88.941c-.49.247-.992.466-1.506.657a7.506 7.506 0 0 1-2.738.466 3.558 3.558 0 0 1-2.738-1.123 4.33 4.33 0 0 1-.603-2.93 10.135 10.135 0 0 1 3.669-6.872 6.793 6.793 0 0 1 3.423-.958 4.19 4.19 0 0 1 2.245.602c.571.386.852 1.078.712 1.752a3.822 3.822 0 0 1-.438 1.315l-1.862.164a2.025 2.025 0 0 0 .164-1.78c-.164-.274-.602-.547-1.424-.547a3.093 3.093 0 0 0-1.642.438 5.008 5.008 0 0 0-2.081 3.121l-.438 1.479a3.802 3.802 0 0 0 0 2.738 1.999 1.999 0 0 0 1.971.958 5.477 5.477 0 0 0 1.752-.274c.481-.13.949-.304 1.397-.52l.137 1.314Zm9.993.876-.493-3.56a2.304 2.304 0 0 0-.41-1.286 1.37 1.37 0 0 0-1.068-.356h-1.588l-1.588 5.202h-1.944l3.477-11.308h1.944L184.977 83h1.369c.498.018.988-.126 1.396-.41.359-.306.657-.678.877-1.095l.794-1.287a3.722 3.722 0 0 1 1.779-1.78c.298-.112.613-.168.931-.164.326.006.649.061.959.164l-.685 1.506a1.095 1.095 0 0 0-.876 0 2.95 2.95 0 0 0-.63.821l-.63.986c-.247.5-.602.94-1.04 1.287a3.576 3.576 0 0 1-1.123.575c.384.107.728.326.986.63.23.365.379.776.438 1.204l.602 4.162-2.108.22Zm14.073 0h-1.971l2.738-8.843-7.885 8.843h-2.3l3.477-11.308h1.971l-2.738 8.844 7.858-8.844h2.328l-3.478 11.308Z"/>
  <path fill="#fff" fill-rule="evenodd" d="M209.153 87.49a3.835 3.835 0 0 1 0-2.546l.082-.302h6.736l.164-.492a5.997 5.997 0 0 0 .274-4.518 2.985 2.985 0 0 0-2.738-1.342 5.777 5.777 0 0 0-3.751 1.479 9.035 9.035 0 0 0-2.738 8.652 3.477 3.477 0 0 0 3.286 1.642 7.669 7.669 0 0 0 2.738-.465 13.702 13.702 0 0 0 1.505-.657l-.219-1.314a7.738 7.738 0 0 1-1.396.52 5.865 5.865 0 0 1-1.752.274 2.438 2.438 0 0 1-2.191-.931Zm5.12-4.792v.466h-4.709v-.247a5.232 5.232 0 0 1 1.451-2.382 2.876 2.876 0 0 1 1.999-.766 1.313 1.313 0 0 1 1.259.684 3.202 3.202 0 0 1 0 2.245Zm19.686 6.872a5.782 5.782 0 0 0 1.534-1.15L235 89.873h1.752l2.245-7.31a8.015 8.015 0 0 0 .411-1.561 2.376 2.376 0 0 0-.247-1.616 3.394 3.394 0 0 0-2.738-1.04 7.417 7.417 0 0 0-3.449.74 2.984 2.984 0 0 0-1.561 2.381h1.752a2.108 2.108 0 0 1 1.013-1.369 3.589 3.589 0 0 1 1.698-.383c.497-.054.996.083 1.396.383.372.435.447 1.05.192 1.561l-.438 1.478h-1.67a7.473 7.473 0 0 0-4.107.959 4.57 4.57 0 0 0-2.108 3.285 2.215 2.215 0 0 0 .684 2.081 3.149 3.149 0 0 0 2.108.575 3.805 3.805 0 0 0 2.026-.465Zm.794-5.01h1.753l-.74 2.41c-.367.398-.791.74-1.259 1.013a3.12 3.12 0 0 1-1.752.52 1.59 1.59 0 0 1-1.315-.493 1.178 1.178 0 0 1-.246-1.013 2.736 2.736 0 0 1 1.15-1.862 4.078 4.078 0 0 1 2.409-.575Zm9.282-6.05h4.983c.844-.12 1.691.2 2.245.848.313.456.431 1.017.329 1.56a3.502 3.502 0 0 1-1.041 2.054c-.407.417-.917.72-1.478.876.421.106.784.37 1.013.74.227.408.313.88.246 1.341a4.157 4.157 0 0 1-1.752 2.902 4.983 4.983 0 0 1-3.121.959h-4.846l3.422-11.28Zm-1.068 9.829h2.738a2.74 2.74 0 0 0 1.643-.466 2.547 2.547 0 0 0 1.013-1.78 1.04 1.04 0 0 0-.329-.985 1.75 1.75 0 0 0-1.122-.356h-2.738l-1.205 3.587Zm4.025-5.038h-2.464l1.04-3.286h2.574c.376-.022.749.074 1.068.274.283.23.41.602.328.958a2.327 2.327 0 0 1-.958 1.616 2.574 2.574 0 0 1-1.588.438Z" clip-rule="evenodd"/>
  <path fill="#fff" d="M261.887 89.817h-1.917l2.711-8.843-7.804 8.843h-2.299l3.449-11.308h1.944l-2.683 8.844 7.776-8.844h2.3l-3.477 11.308Z"/>
  <path fill="#fff" fill-rule="evenodd" d="M270.922 89.57a5.906 5.906 0 0 0 1.561-1.15l-.521 1.452h1.753l2.245-7.31a8.415 8.415 0 0 0 .41-1.561 2.46 2.46 0 0 0-.246-1.616 3.422 3.422 0 0 0-2.738-1.04 7.36 7.36 0 0 0-3.422.74 3.01 3.01 0 0 0-1.561 2.381h1.752a2.083 2.083 0 0 1 1.013-1.369 3.59 3.59 0 0 1 1.698-.383c.497-.054.996.083 1.396.383.379.432.455 1.05.192 1.561l-.438 1.478h-1.67a7.419 7.419 0 0 0-4.107.959 4.573 4.573 0 0 0-2.109 3.285 2.218 2.218 0 0 0 .685 2.081 3.12 3.12 0 0 0 2.108.575 3.752 3.752 0 0 0 1.999-.465Zm.821-5.01h1.753l-.74 2.41a5.088 5.088 0 0 1-1.259 1.013 3.12 3.12 0 0 1-1.752.52 1.59 1.59 0 0 1-1.315-.493 1.178 1.178 0 0 1-.246-1.013 2.737 2.737 0 0 1 1.15-1.862 4.052 4.052 0 0 1 2.409-.575Z" clip-rule="evenodd"/>
  <path fill="#fff" d="M285.05 89.817h-1.944l2.984-9.692h-3.094l-.41 1.26a56.53 56.53 0 0 1-1.616 4.435 7.12 7.12 0 0 1-2.464 3.422 5.94 5.94 0 0 1-2.464.876v-1.642a4.91 4.91 0 0 0 1.78-.767 5.227 5.227 0 0 0 1.56-2.3c.466-1.123 1.369-3.614 1.807-5.065l.575-1.862h6.736l-3.45 11.335Zm13.252 0h-1.944l2.738-8.843-7.831 8.843h-2.272l3.449-11.308h1.944l-2.71 8.844 7.803-8.844h2.3l-3.477 11.308Zm12.622 0h-1.917l1.561-5.092h-4.819l-1.588 5.092h-1.944l3.477-11.308h1.944l-1.424 4.573h4.847l1.396-4.573h1.944l-3.477 11.308Zm13.251 0h-1.944l2.738-8.843-7.83 8.843h-2.273l3.45-11.308h1.944l-2.71 8.844 7.803-8.844h2.3l-3.478 11.308Zm13.252 0h-1.944l2.711-8.843-7.803 8.843h-2.3l3.477-11.308h1.916l-2.683 8.844 7.803-8.844h2.3l-3.477 11.308Z"/>
  <path fill="url(#a)" d="M395.617 44.71c-27.055.232-39.282 7.086-62.08 24.294L328.863 74c23.491-17.67 36.985-19.167 56.317-19.005 1.796.116 3.511.216 4.599-2.174l5.838-8.11Z"/>
  <path fill="url(#b)" d="M400.603 24.194C362.225 30.64 345.28 57.5 333.53 68.981c22.932-21.88 42.062-31.742 58.873-33.67 1.491-2.035 6.635-8.834 8.201-11.116h-.001Z"/>
  <path fill="url(#c)" d="M392.381 35.312c-25.571 3.616-42.293 18.357-57.703 32.405-.432.446-1.99 2.219-2.442 2.641 13.433-10.284 24.713-20.938 52.735-24.892 1.394-1.635 5.479-7.186 7.41-10.154Z"/>
  <path fill="url(#d)" d="M392.918 43.792c-4.458 0-8.976 2.19-9.409 3.44-.738 2.073.418 1.194 3.773 3.26 2.84 1.735 2.244 2.36 1.983 3.247 2.587-3.81 7.246-9.384 7.246-9.384-1.133-.393-2.363-.563-3.593-.563Z"/>
  <path fill="url(#e)" d="M440.661 11.11c-7.835 10.686-25.683 9.753-31.237 10.516-5.219.725-8.544 2.082-10.631 4.827l-7.351 10.13c1.603-1.48 6.441-2.204 11.667-2.343h1.409c.701-.023 1.484-.062 2.304-.093 7.433-.3 17.751-1.372 23.73-8.604l9.021-12.899 1.088-1.534Z"/>
  <path fill="url(#f)" d="M447.863 0c-8.275 8.442-17.311 8.79-24.975 9.869-2.296.308-7.47.231-11.787 3.076-4.301 2.83-9.46 9.584-12.01 13.13 2.371-2.614 5.517-3.354 10.094-3.901 4.63-.547 11.302-.455 16.051-1.133 4.526-.617 12.268-5.687 14.843-9.257L447.863 0Z"/>
  <path fill="url(#g)" d="M430.85 25.142c-3.466 4.595-9.647 6.67-17.072 7.749-5.644.802-12.055 1.04-13.897 1.156-3.168.139-7.358 1.18-8.514 2.622-3.556 4.556-6.933 8.797-7.857 10.563 2.169-2.09 9.274-1.859 17.922-2.267 8.588-.417 17.318-4.264 24.214-12.375l5.204-7.448Z"/>
  <defs>
    <linearGradient id="a" x1="323.712" x2="384.541" y1="82.159" y2="103.91" gradientUnits="userSpaceOnUse">
      <stop stop-color="#C4161C"/>
      <stop offset=".3" stop-color="#ED1C24"/>
      <stop offset=".5" stop-color="#F8ABAD"/>
      <stop offset=".719" stop-color="#ED1C24"/>
      <stop offset="1" stop-color="#C4161C"/>
    </linearGradient>
    <linearGradient id="b" x1="346.693" x2="376.195" y1="32.018" y2="79.934" gradientUnits="userSpaceOnUse">
      <stop stop-color="#fff"/>
      <stop offset=".343" stop-color="#fff"/>
      <stop offset=".55" stop-color="#fff"/>
      <stop offset=".91" stop-color="#C7D2EC"/>
      <stop offset="1" stop-color="#C7D2EC"/>
    </linearGradient>
    <linearGradient id="c" x1="340.71" x2="369.4" y1="61.761" y2="80.66" gradientUnits="userSpaceOnUse">
      <stop stop-color="#00529B"/>
      <stop offset=".107" stop-color="#00529B"/>
      <stop offset=".5" stop-color="#7D97CD"/>
      <stop offset=".527" stop-color="#7492C9"/>
      <stop offset=".732" stop-color="#3670B1"/>
      <stop offset=".882" stop-color="#0F5AA1"/>
      <stop offset=".961" stop-color="#00529B"/>
      <stop offset="1" stop-color="#00529B"/>
    </linearGradient>
    <linearGradient id="d" x1="380.222" x2="392.909" y1="42.479" y2="56.955" gradientUnits="userSpaceOnUse">
      <stop stop-color="#C4161C"/>
      <stop offset=".5" stop-color="#ED1C24"/>
      <stop offset="1" stop-color="#F8ABAD"/>
    </linearGradient>
    <linearGradient id="e" x1="383.462" x2="439.474" y1="32.693" y2="53.286" gradientUnits="userSpaceOnUse">
      <stop stop-color="#C7D6EE"/>
      <stop offset=".073" stop-color="#C7D6EE"/>
      <stop offset=".118" stop-color="#AFC6E4"/>
      <stop offset=".214" stop-color="#719DCA"/>
      <stop offset=".352" stop-color="#0E5BA1"/>
      <stop offset=".371" stop-color="#00529B"/>
      <stop offset=".43" stop-color="#08579E"/>
      <stop offset=".522" stop-color="#1E66A8"/>
      <stop offset=".636" stop-color="#437EB7"/>
      <stop offset=".767" stop-color="#75A0CC"/>
      <stop offset=".912" stop-color="#B5CAE7"/>
      <stop offset=".949" stop-color="#C7D6EE"/>
      <stop offset="1" stop-color="#C7D6EE"/>
    </linearGradient>
    <linearGradient id="f" x1="377.796" x2="466.985" y1="31.163" y2="55.826" gradientUnits="userSpaceOnUse">
      <stop stop-color="#fff"/>
      <stop offset=".174" stop-color="#fff"/>
      <stop offset=".23" stop-color="#F9FAFD"/>
      <stop offset=".306" stop-color="#E8ECF6"/>
      <stop offset=".354" stop-color="#D9E0F1"/>
      <stop offset=".469" stop-color="#EDF0F8"/>
      <stop offset=".592" stop-color="#FAFBFD"/>
      <stop offset=".7" stop-color="#fff"/>
      <stop offset="1" stop-color="#fff"/>
    </linearGradient>
    <linearGradient id="g" x1="377.281" x2="414.043" y1="63.801" y2="73.982" gradientUnits="userSpaceOnUse">
      <stop stop-color="#F8ABAD"/>
      <stop offset=".056" stop-color="#F8ABAD"/>
      <stop offset=".101" stop-color="#F8A6A8"/>
      <stop offset=".156" stop-color="#F6979A"/>
      <stop offset=".215" stop-color="#F57E82"/>
      <stop offset=".278" stop-color="#F25C62"/>
      <stop offset=".343" stop-color="#EF3138"/>
      <stop offset=".371" stop-color="#ED1C24"/>
      <stop offset=".46" stop-color="#D1181E"/>
      <stop offset=".517" stop-color="#C4161C"/>
      <stop offset=".607" stop-color="#D1181E"/>
      <stop offset=".747" stop-color="#ED1C24"/>
      <stop offset=".961" stop-color="#F8ABAD"/>
      <stop offset="1" stop-color="#F8ABAD"/>
    </linearGradient>
  </defs>
</svg>
