<svg width="70" height="70" viewBox="0 0 70 70" fill="none" xmlns="http://www.w3.org/2000/svg">
<path d="M33.519 8.13477H22.6136C13.6448 8.13477 8.02148 14.4843 8.02148 23.4735V47.7227C8.02148 56.7119 13.6186 63.0614 22.6136 63.0614H48.3502C57.3482 63.0614 62.9452 56.7119 62.9452 47.7227V35.9743" stroke="black" stroke-width="1.5" stroke-linecap="round" stroke-linejoin="round"/>
<path fill-rule="evenodd" clip-rule="evenodd" d="M25.7473 31.8526L47.5436 10.0563C50.259 7.34385 54.6603 7.34385 57.3757 10.0563L60.9253 13.6059C63.6407 16.3213 63.6407 20.7255 60.9253 23.438L39.024 45.3393C37.8369 46.5263 36.2269 47.1943 34.5469 47.1943H23.6211L23.8953 36.1693C23.9361 34.5476 24.5982 33.0018 25.7473 31.8526Z" stroke="black" stroke-width="1.5" stroke-linecap="round" stroke-linejoin="round"/>
<path d="M44.2314 13.4238L57.5489 26.7413" stroke="black" stroke-width="1.5" stroke-linecap="round" stroke-linejoin="round"/>
</svg>
