<svg width="70" height="70" viewBox="0 0 70 70" fill="none" xmlns="http://www.w3.org/2000/svg">
<path fill-rule="evenodd" clip-rule="evenodd" d="M27.9754 44.353C38.7349 44.353 47.9312 45.9834 47.9312 52.4964C47.9312 59.0093 38.7962 60.6864 27.9754 60.6864C17.2129 60.6864 8.01953 59.0705 8.01953 52.5547C8.01953 46.0389 17.1516 44.353 27.9754 44.353Z" stroke="black" stroke-width="1.5" stroke-linecap="round" stroke-linejoin="round"/>
<path fill-rule="evenodd" clip-rule="evenodd" d="M27.9751 35.0577C20.911 35.0577 15.1826 29.3323 15.1826 22.2681C15.1826 15.2039 20.911 9.47852 27.9751 9.47852C35.0364 9.47852 40.7647 15.2039 40.7647 22.2681C40.7909 29.306 35.1034 35.0314 28.0655 35.0577H27.9751Z" stroke="black" stroke-width="1.5" stroke-linecap="round" stroke-linejoin="round"/>
<path d="M48.0762 31.7379C52.7458 31.0816 56.342 27.0741 56.3508 22.2237C56.3508 17.4433 52.8653 13.4766 48.2949 12.7271" stroke="black" stroke-width="1.5" stroke-linecap="round" stroke-linejoin="round"/>
<path d="M54.2363 42.9688C58.7601 43.6425 61.9188 45.2292 61.9188 48.4958C61.9188 50.7446 60.4313 52.2029 58.028 53.1158" stroke="black" stroke-width="1.5" stroke-linecap="round" stroke-linejoin="round"/>
</svg>
